<svg xmlns="http://www.w3.org/2000/svg" width="213" height="226" viewBox="0 0 213 226">
<g>
<path d="M 68.40 224.25 C68.10,225.25 68.26,225.71 69.35,225.89 C67.81,225.88 66.31,225.87 64.83,225.86 L 62.39 218.75 C57.50,204.51 55.78,193.72 55.64,176.26 C55.56,167.32 55.25,160.01 54.95,160.01 C54.65,160.00 53.93,160.47 53.35,161.05 C52.77,161.63 50.99,162.26 49.40,162.45 C47.75,162.65 46.62,163.32 46.79,164.01 C47.28,166.07 44.13,169.99 42.50,169.36 C41.54,168.99 41.00,169.38 41.00,170.45 C41.00,171.37 40.53,171.83 39.96,171.47 C39.38,171.12 38.24,171.39 37.41,172.07 C36.30,172.99 35.62,173.02 34.79,172.19 C33.72,171.12 31.80,172.56 30.13,175.31 C37.31,162.23 43.81,149.04 44.98,145.07 C44.85,146.14 43.77,149.11 42.46,151.92 C40.72,155.64 40.26,157.66 40.97,158.37 C41.54,158.94 42.00,160.21 42.00,161.20 C42.00,163.92 43.28,163.43 49.66,158.27 C56.59,152.67 59.05,150.75 59.99,148.26 C60.55,146.77 60.56,145.08 60.65,142.27 C60.77,138.55 60.90,135.42 60.93,135.32 C60.97,135.22 62.32,135.52 63.93,135.98 C69.25,137.51 72.01,132.67 69.39,126.39 C68.59,124.48 68.21,122.47 68.54,121.93 C68.88,121.39 68.23,120.17 67.11,119.22 C64.37,116.92 59.94,109.46 55.39,100.16 C57.37,104.01 59.48,107.78 61.70,111.44 C67.08,120.34 68.99,121.91 68.51,116.84 C68.91,118.61 69.67,120.00 70.27,120.00 C70.92,120.00 73.94,122.65 76.98,125.89 C80.02,129.14 84.69,133.55 87.37,135.70 C92.51,139.82 99.46,148.64 103.17,155.73 C104.38,158.05 105.52,159.81 105.69,159.64 C106.14,159.20 102.52,148.89 100.69,145.41 C99.85,143.81 95.35,138.04 90.68,132.59 C78.40,118.24 77.20,113.35 83.45,103.00 C84.61,101.07 86.44,97.71 87.53,95.52 C89.87,90.78 104.62,75.57 107.87,74.54 C111.88,73.27 114.91,74.89 123.10,82.72 C130.09,89.39 131.74,91.68 135.91,100.44 C138.54,105.97 141.00,111.75 141.37,113.29 C142.40,117.48 139.75,122.02 130.24,132.33 C125.59,137.38 120.48,144.09 118.88,147.25 C117.28,150.41 116.17,153.00 116.42,153.00 C116.66,153.00 122.06,147.86 128.41,141.57 C142.64,127.48 148.00,119.66 148.00,112.99 C148.00,105.36 143.09,97.05 132.50,86.76 C123.93,78.43 122.72,76.71 127.07,79.04 C128.67,79.90 129.00,79.74 129.00,78.10 C129.00,77.02 128.53,74.88 127.95,73.36 C126.90,70.62 126.91,70.61 128.95,72.46 C131.73,74.97 132.42,73.93 130.70,69.81 C128.66,64.94 120.97,58.60 113.45,55.59 C105.68,52.48 104.33,52.40 103.51,54.97 C102.70,57.52 97.56,61.18 94.54,61.36 C93.25,61.44 92.41,61.85 92.67,62.27 C92.93,62.69 91.31,65.34 89.07,68.15 C86.70,71.12 84.99,74.36 84.97,75.88 C84.95,77.32 84.27,79.38 83.46,80.45 C82.48,81.74 82.19,83.51 82.60,85.69 C83.14,88.57 82.90,89.09 80.61,89.96 C79.17,90.50 78.00,91.38 78.00,91.90 C78.00,92.43 77.27,93.59 76.37,94.49 C75.44,95.41 74.62,98.14 74.46,100.81 C74.30,103.39 74.13,105.78 74.09,106.13 C74.04,106.48 72.59,108.14 70.88,109.82 C69.08,111.58 68.33,112.54 68.20,113.88 C68.08,110.76 69.23,107.96 74.29,97.30 C77.90,89.71 81.61,80.80 82.55,77.50 C85.00,68.86 87.22,64.97 92.47,60.13 C97.55,55.45 106.07,51.02 110.00,51.02 C114.49,51.02 123.01,55.85 128.90,61.74 C133.94,66.78 135.03,68.60 137.45,76.01 C138.98,80.68 142.93,90.26 146.23,97.30 C151.78,109.10 152.20,110.51 151.79,115.57 L 151.33 121.04 L 157.42 124.10 C167.02,128.94 170.05,132.18 173.58,142.83 C173.54,142.72 173.49,142.62 173.44,142.52 C172.58,140.70 169.21,137.08 165.96,134.47 C162.71,131.86 159.37,128.69 158.54,127.43 C157.31,125.55 156.24,125.16 152.77,125.31 C150.42,125.41 148.48,125.95 148.46,126.50 C148.41,128.16 146.10,131.80 143.41,134.50 C141.21,136.70 137.36,144.16 125.60,169.00 C124.17,172.02 122.02,176.02 120.83,177.87 L 118.67 181.25 L 121.09 179.96 C122.41,179.25 127.21,174.86 131.75,170.21 C136.29,165.55 140.00,162.17 140.00,162.69 C140.00,166.30 133.60,181.77 128.58,190.30 C127.03,192.93 126.03,195.36 126.36,195.70 C126.70,196.03 130.92,192.30 135.76,187.40 C141.92,181.16 145.96,175.96 149.27,170.00 C151.87,165.32 154.16,161.05 154.36,160.50 C155.37,157.73 155.92,162.06 156.58,177.78 C156.97,187.27 157.46,194.87 157.67,194.66 C157.87,194.46 158.87,190.51 159.88,185.90 L 161.71 177.50 L 163.28 182.68 C166.42,193.05 166.45,206.03 163.38,222.75 L 162.78 226.00 L 113.90 226.00 C115.68,225.98 116.78,225.85 117.25,225.23 C118.18,224.01 116.62,220.90 113.08,213.00 C110.98,208.32 108.19,202.04 106.88,199.03 C102.64,189.29 96.82,178.61 93.12,173.80 C91.13,171.22 88.38,167.24 87.00,164.96 C83.55,159.24 81.17,158.08 78.82,160.98 C77.82,162.21 77.00,163.86 77.00,164.65 C77.00,165.43 81.72,175.73 87.48,187.54 C93.25,199.34 99.21,212.82 100.73,217.49 L 103.50 225.99 L 110.82 225.99 C111.37,225.99 111.89,226.00 112.37,226.00 L 111.64 226.00 C98.44,226.00 85.92,225.97 74.82,225.92 L 75.53 216.44 C76.44,204.34 74.35,178.30 72.15,174.32 C71.79,173.67 71.47,180.87 71.44,190.32 C71.39,205.25 70.22,218.33 68.40,224.25 ZM 97.10 111.56 C104.56,114.65 106.88,114.79 110.45,112.36 C111.75,111.47 114.08,111.21 117.45,111.58 C121.50,112.03 123.39,111.68 126.99,109.82 C129.46,108.54 132.13,106.33 132.91,104.90 C134.22,102.53 134.15,102.01 132.12,99.18 C129.64,95.68 118.75,90.00 114.54,90.00 C113.07,90.00 110.89,90.56 109.68,91.25 C108.48,91.94 105.03,92.50 102.00,92.50 C97.49,92.50 95.74,93.04 92.30,95.50 C83.25,101.97 84.56,106.37 97.10,111.56 ZM 175.25 148.17 C180.72,166.11 182.80,172.54 185.91,181.18 C188.90,189.51 191.04,201.57 192.50,218.25 L 193.17 226.00 L 188.00 226.00 L 187.99 218.25 C187.98,206.03 185.50,190.09 182.42,182.40 C177.59,170.35 173.85,156.71 175.14,155.91 C176.09,155.32 176.01,151.82 175.25,148.17 ZM 45.43 143.51 C46.99,138.38 49.47,133.79 51.89,131.60 C53.05,130.55 54.00,129.08 54.00,128.33 C54.00,127.58 52.02,123.04 49.60,118.24 C41.86,102.87 40.19,98.89 32.92,78.50 C30.59,71.95 28.67,66.49 27.11,61.87 C27.63,62.52 28.47,63.17 29.31,63.54 C31.02,64.29 31.61,65.59 32.00,69.50 C32.28,72.32 33.80,76.90 35.47,80.00 C39.75,87.93 42.00,94.03 42.00,97.73 C42.00,102.09 44.59,108.28 47.46,110.77 C50.97,113.83 58.00,126.23 58.71,130.63 C59.26,134.03 59.14,134.35 57.80,133.24 C56.55,132.21 56.03,132.26 54.97,133.53 C54.26,134.39 52.98,134.82 52.12,134.49 C51.26,134.16 50.86,134.19 51.22,134.55 C51.91,135.25 51.62,135.71 47.53,140.40 C46.66,141.39 45.88,142.56 45.43,143.51 ZM 29.67 225.25 C28.25,222.90 25.67,202.98 25.62,194.00 C25.57,184.09 25.73,183.19 28.63,178.00 C28.86,177.59 29.09,177.18 29.32,176.77 C28.84,177.72 28.41,178.77 28.04,179.89 C26.89,183.36 26.87,184.30 27.92,184.95 C29.34,185.83 28.52,190.00 26.93,190.00 C25.90,190.00 25.69,197.25 26.63,200.75 C26.96,201.99 27.82,203.00 28.53,203.00 C29.77,203.00 31.11,207.61 32.63,217.06 C33.65,223.45 35.16,219.59 34.41,212.50 C34.06,209.20 34.00,206.73 34.28,207.00 C35.15,207.85 40.00,222.55 40.00,224.33 C40.00,224.99 40.29,225.39 41.60,225.64 C34.11,225.52 29.75,225.39 29.67,225.25 ZM 63.53 163.80 C64.07,165.09 64.95,164.02 67.14,159.39 C69.98,153.43 70.13,149.35 67.48,150.37 C66.62,150.70 66.27,149.88 66.36,147.78 C66.44,146.09 65.94,144.52 65.25,144.27 C64.47,144.00 64.00,144.75 64.00,146.26 C64.00,147.59 63.37,150.76 62.61,153.31 C61.42,157.24 61.42,158.11 62.60,159.08 C63.36,159.71 63.72,160.65 63.40,161.16 C63.08,161.68 63.14,162.86 63.53,163.80 ZM 68.52 146.19 C69.37,147.04 81.31,144.59 81.65,143.50 C82.31,141.40 80.33,139.75 78.38,140.78 C77.34,141.32 74.59,142.08 72.25,142.47 C68.49,143.09 66.96,144.62 68.52,146.19 ZM 65.50 139.99 C66.32,141.32 69.90,141.27 74.10,139.86 C78.55,138.38 79.69,137.29 78.28,135.88 C77.46,135.06 75.89,135.23 72.33,136.50 C69.68,137.44 66.91,138.39 66.19,138.60 C65.46,138.81 65.15,139.44 65.50,139.99 ZM 71.13 150.65 C71.81,151.47 73.27,151.91 74.43,151.63 C75.57,151.36 78.16,150.84 80.18,150.47 C82.92,149.97 83.71,149.42 83.28,148.28 C82.81,147.06 81.61,146.89 77.21,147.40 C70.55,148.19 69.53,148.73 71.13,150.65 ZM 73.40 155.84 C73.73,156.38 76.48,156.75 79.49,156.66 C83.92,156.53 84.99,156.17 84.99,154.81 C85.00,152.31 83.73,151.92 78.56,152.89 C73.44,153.85 72.50,154.38 73.40,155.84 ZM 59.00 178.45 C59.00,179.85 59.22,181.00 59.48,181.00 C59.98,181.00 65.00,171.48 65.00,170.53 C65.00,170.24 64.34,170.00 63.53,170.00 C61.69,170.00 59.00,175.03 59.00,178.45 ZM 66.00 166.53 C66.00,168.03 68.25,166.53 70.56,163.51 C72.98,160.34 73.33,157.00 71.23,157.00 C70.51,157.00 66.00,165.22 66.00,166.53 ZM 173.18 194.56 C172.96,196.45 172.42,198.00 171.97,198.00 C170.62,198.00 169.94,192.70 170.88,189.50 C171.75,186.54 171.77,186.53 172.67,188.81 C173.17,190.07 173.40,192.66 173.18,194.56 ZM 38.91 50.69 C38.15,51.87 38.58,54.74 39.96,60.08 C39.98,60.15 40.00,60.21 40.01,60.28 C38.11,53.54 37.91,51.51 38.91,50.69 ZM 47.38 59.28 L 46.51 55.70 C46.26,54.66 45.99,53.83 45.68,53.16 C46.13,53.95 46.47,54.87 46.68,55.89 L 47.38 59.28 ZM 22.99 48.97 C21.49,43.73 20.75,40.14 20.41,36.90 C20.70,39.64 21.62,43.89 22.99,48.97 ZM 44.08 51.21 C43.70,50.96 43.26,50.75 42.74,50.57 C42.02,50.32 41.39,50.15 40.85,50.07 C42.01,50.01 43.13,50.43 44.08,51.21 Z" fill="rgba(5,3,5,1)"/>
<path d="M 163.38 222.75 C166.45,206.03 166.42,193.05 163.28,182.68 L 161.71 177.50 L 159.88 185.90 C158.87,190.51 157.87,194.46 157.67,194.66 C157.46,194.87 156.97,187.27 156.58,177.78 C155.92,162.06 155.37,157.73 154.36,160.50 C154.16,161.05 151.87,165.32 149.27,170.00 C145.96,175.96 141.92,181.16 135.76,187.40 C130.92,192.30 126.70,196.03 126.36,195.70 C126.03,195.36 127.03,192.93 128.58,190.30 C133.60,181.77 140.00,166.30 140.00,162.69 C140.00,162.17 136.29,165.55 131.75,170.21 C127.21,174.86 122.41,179.25 121.09,179.96 L 118.67 181.25 L 120.83 177.87 C122.02,176.02 124.17,172.02 125.60,169.00 C137.36,144.16 141.21,136.70 143.41,134.50 C145.14,132.77 146.71,130.65 147.63,128.91 C147.35,129.63 147.01,130.43 146.66,131.22 C144.45,136.16 144.52,137.31 146.94,135.81 C148.00,135.14 148.71,134.34 148.51,134.01 C147.51,132.40 153.73,133.28 157.23,135.25 C160.33,136.99 162.01,139.06 164.74,144.50 C166.67,148.35 168.55,151.73 168.91,152.00 C169.26,152.27 170.39,154.40 171.42,156.72 C173.22,160.82 175.70,161.78 174.47,157.92 C174.13,156.84 174.34,156.00 174.93,156.00 C174.98,156.00 175.02,156.00 175.06,155.99 C174.02,157.34 177.70,170.62 182.42,182.40 C185.50,190.09 187.98,206.03 187.99,218.25 L 188.00 226.00 L 162.78 226.00 ZM 103.17 155.73 C99.46,148.64 92.51,139.82 87.37,135.70 C84.69,133.55 80.02,129.14 76.98,125.89 C74.21,122.94 71.46,120.48 70.50,120.06 C71.33,120.34 73.24,121.93 75.00,123.83 C76.93,125.91 78.87,127.43 79.32,127.21 C79.76,126.99 79.36,125.94 78.41,124.90 C75.00,121.13 76.84,108.03 81.90,100.00 C84.22,96.32 87.43,88.92 89.64,82.17 C93.12,71.50 94.06,70.07 103.05,61.75 L 110.82 54.56 C111.60,54.86 112.48,55.20 113.45,55.59 C120.97,58.60 128.66,64.94 130.70,69.81 C132.42,73.93 131.73,74.97 128.95,72.46 C126.91,70.61 126.90,70.62 127.95,73.36 C128.53,74.88 129.00,77.02 129.00,78.10 C129.00,79.74 128.67,79.90 127.07,79.04 C122.72,76.71 123.93,78.43 132.50,86.76 C143.09,97.05 148.00,105.36 148.00,112.99 C148.00,119.66 142.64,127.48 128.41,141.57 C122.06,147.86 116.66,153.00 116.42,153.00 C116.17,153.00 117.28,150.41 118.88,147.25 C120.48,144.09 125.59,137.38 130.24,132.33 C139.75,122.02 142.40,117.48 141.37,113.29 C141.00,111.75 138.54,105.97 135.91,100.44 C131.74,91.68 130.09,89.39 123.10,82.72 C114.91,74.89 111.88,73.27 107.87,74.54 C104.62,75.57 89.87,90.78 87.53,95.52 C86.44,97.71 84.61,101.07 83.45,103.00 C77.20,113.35 78.40,118.24 90.68,132.59 C95.35,138.04 99.85,143.81 100.69,145.41 C102.52,148.89 106.14,159.20 105.69,159.64 C105.52,159.81 104.38,158.05 103.17,155.73 ZM 40.00 224.33 C40.00,222.55 35.15,207.85 34.28,207.00 C34.00,206.73 34.06,209.20 34.41,212.50 C35.16,219.59 33.65,223.45 32.63,217.06 C31.11,207.61 29.77,203.00 28.53,203.00 C27.82,203.00 26.96,201.99 26.63,200.75 C27.26,203.12 29.94,203.89 30.08,201.75 C30.43,196.53 34.41,185.23 37.28,181.31 C38.82,179.20 41.00,181.06 41.00,184.48 C41.00,189.10 42.09,194.00 43.12,194.00 C43.61,194.00 44.00,192.79 44.00,191.32 C44.00,189.84 44.86,186.13 45.90,183.07 C46.95,180.00 48.10,176.15 48.47,174.50 C48.84,172.85 50.40,170.15 51.95,168.50 C53.60,166.74 54.78,164.36 55.27,162.57 C55.44,165.47 55.59,170.53 55.64,176.26 C55.78,193.72 57.50,204.51 62.39,218.75 L 64.88 226.00 L 52.44 226.00 C41.47,226.00 40.00,225.80 40.00,224.33 ZM 68.40 224.25 C70.22,218.33 71.39,205.25 71.44,190.32 C71.47,180.87 71.79,173.67 72.15,174.32 C74.35,178.30 76.44,204.34 75.53,216.44 L 74.81 226.00 L 71.34 226.00 C68.49,226.00 67.96,225.68 68.40,224.25 ZM 46.10 161.05 C46.65,160.34 47.00,159.39 47.00,158.50 C47.00,157.17 47.84,155.27 48.88,154.29 C49.91,153.31 51.77,150.48 53.01,148.00 C55.82,142.40 59.53,137.89 60.55,138.81 C60.64,138.89 60.71,138.94 60.76,138.96 C60.73,139.95 60.69,141.08 60.65,142.27 C60.56,145.08 60.55,146.77 59.99,148.26 C59.05,150.75 56.59,152.67 49.66,158.27 C48.23,159.43 47.06,160.35 46.10,161.05 ZM 173.18 194.56 C173.40,192.66 173.17,190.07 172.67,188.81 C171.77,186.53 171.75,186.54 170.88,189.50 C169.94,192.70 170.62,198.00 171.97,198.00 C172.42,198.00 172.96,196.45 173.18,194.56 ZM 67.95 150.24 C67.42,150.65 66.87,152.05 66.21,154.50 C65.55,156.98 64.56,159.00 64.00,159.00 C62.67,159.00 62.68,158.93 65.09,152.49 C65.68,150.91 66.10,149.53 66.35,148.36 C66.34,150.03 66.71,150.67 67.48,150.37 C67.65,150.30 67.80,150.26 67.95,150.24 ZM 164.94 133.64 C165.28,133.92 165.62,134.20 165.96,134.47 C169.21,137.08 172.58,140.70 173.44,142.52 C173.53,142.70 173.61,142.89 173.70,143.08 C172.71,141.12 171.21,139.38 168.62,137.05 C167.51,136.04 166.22,134.84 164.94,133.64 ZM 60.78 138.59 C60.73,138.49 60.67,138.38 60.60,138.25 C59.91,137.05 60.07,136.20 60.89,135.85 C60.86,136.41 60.82,137.37 60.78,138.59 ZM 151.27 125.44 C151.74,125.38 152.24,125.33 152.77,125.31 C156.18,125.16 157.28,125.54 158.49,127.34 C156.50,125.57 155.23,125.24 152.49,125.35 C152.07,125.36 151.66,125.39 151.27,125.44 ZM 63.53 163.80 C63.91,164.70 65.06,163.33 66.26,161.20 C64.70,164.28 63.99,164.90 63.53,163.80 ZM 96.02 61.06 C94.95,61.47 93.98,61.68 93.32,61.57 C93.64,61.46 94.06,61.39 94.54,61.36 C94.99,61.33 95.49,61.23 96.02,61.06 ZM 104.43 53.46 C104.24,53.76 103.92,54.27 103.54,54.87 C103.76,54.21 104.02,53.74 104.43,53.46 ZM 69.33 151.41 C69.12,150.90 68.91,150.54 68.71,150.33 C69.03,150.50 69.24,150.88 69.33,151.41 ZM 64.38 144.53 C64.15,144.96 64.00,145.61 64.00,146.34 C64.00,147.63 63.37,150.76 62.61,153.31 C63.37,150.76 64.00,147.59 64.00,146.26 C64.00,145.45 64.14,144.86 64.38,144.53 ZM 69.83 119.78 C69.28,119.28 68.71,117.97 68.42,116.44 C68.71,117.95 69.28,119.26 69.83,119.78 ZM 54.95 160.01 C54.96,160.01 54.97,160.02 54.98,160.04 C54.88,160.03 54.77,160.05 54.64,160.09 C54.76,160.04 54.87,160.00 54.95,160.01 Z" fill="rgba(45,42,47,1)"/>
<path d="M 42.00 161.20 C42.00,160.21 41.54,158.94 40.97,158.37 C40.26,157.66 40.72,155.64 42.46,151.92 C43.85,148.94 44.98,145.78 44.99,144.90 C45.00,144.01 46.14,141.99 47.53,140.40 C51.62,135.71 51.91,135.25 51.22,134.55 C50.86,134.19 51.26,134.16 52.12,134.49 C52.98,134.82 54.26,134.39 54.97,133.53 C56.03,132.26 56.55,132.21 57.80,133.24 C59.14,134.35 59.26,134.03 58.71,130.63 C58.00,126.23 50.97,113.83 47.46,110.77 C44.59,108.28 42.00,102.09 42.00,97.73 C42.00,94.03 39.75,87.93 35.47,80.00 C33.80,76.90 32.28,72.32 32.00,69.50 C31.61,65.59 31.02,64.29 29.31,63.54 C28.11,63.01 26.90,61.89 26.62,61.04 C23.27,50.79 20.91,41.62 20.41,36.90 C19.84,31.61 20.01,30.90 22.35,28.56 C25.44,25.47 27.89,25.32 30.82,28.05 L 33.02 30.09 L 40.83 27.57 C36.86,29.11 34.33,30.50 34.14,31.49 C33.94,32.53 34.83,37.12 36.11,41.69 C38.08,48.71 38.77,50.00 40.53,50.00 C41.11,50.00 41.65,50.07 42.16,50.21 C41.30,49.98 40.39,50.02 39.48,50.37 C37.56,51.10 37.84,53.08 41.60,65.72 C47.46,85.42 61.21,114.26 67.11,119.22 C68.23,120.17 68.88,121.39 68.54,121.93 C68.21,122.47 68.59,124.48 69.39,126.39 C72.01,132.66 69.25,137.51 63.94,135.98 C60.85,135.10 59.37,136.11 60.60,138.25 C61.00,138.94 60.97,139.19 60.55,138.81 C59.53,137.89 55.82,142.40 53.01,148.00 C51.77,150.48 49.91,153.31 48.88,154.29 C47.84,155.27 47.00,157.17 47.00,158.50 C47.00,159.88 46.16,161.38 45.07,161.96 C44.06,162.50 43.38,162.82 42.92,162.90 C44.40,161.68 52.00,148.69 52.00,147.25 C52.00,146.67 53.52,143.95 55.37,141.20 C57.58,137.91 58.45,135.73 57.90,134.85 C56.35,132.37 53.62,135.38 50.42,143.09 C48.73,147.16 46.15,153.14 44.67,156.37 C43.44,159.09 42.39,161.50 42.09,162.33 C42.02,162.06 42.00,161.68 42.00,161.20 ZM 97.10 111.56 C84.56,106.37 83.25,101.97 92.30,95.50 C95.74,93.04 97.49,92.50 102.00,92.50 C105.03,92.50 108.48,91.94 109.68,91.25 C110.89,90.56 113.07,90.00 114.54,90.00 C118.75,90.00 129.64,95.68 132.12,99.18 C134.15,102.01 134.22,102.53 132.91,104.90 C132.13,106.33 129.46,108.54 126.99,109.82 C123.39,111.68 121.50,112.03 117.45,111.58 C114.08,111.21 111.75,111.47 110.45,112.36 C106.88,114.79 104.56,114.65 97.10,111.56 ZM 100.73 217.49 C99.21,212.82 93.25,199.34 87.48,187.54 C81.72,175.73 77.00,165.43 77.00,164.65 C77.00,163.86 77.82,162.21 78.82,160.98 C81.17,158.08 83.55,159.24 87.00,164.96 C88.38,167.24 91.13,171.22 93.12,173.80 C96.82,178.61 102.64,189.29 106.88,199.03 C108.19,202.04 110.98,208.32 113.08,213.00 C116.62,220.90 118.18,224.01 117.25,225.23 C116.62,226.06 114.84,226.01 111.76,226.00 C112.45,225.96 113.00,225.58 113.00,225.13 C113.00,222.70 101.78,197.41 93.86,182.00 C84.51,163.80 82.40,160.26 81.46,161.21 C81.15,161.51 83.15,165.98 85.91,171.13 C91.97,182.49 101.85,204.16 106.70,216.75 C108.75,222.06 110.75,225.85 111.58,226.00 C111.34,225.99 111.08,225.99 110.82,225.99 L 103.50 225.99 ZM 26.63 200.75 C25.69,197.25 25.90,190.00 26.93,190.00 C28.52,190.00 29.34,185.83 27.92,184.95 C26.87,184.30 26.89,183.36 28.04,179.89 C29.82,174.47 33.21,170.61 34.79,172.19 C35.62,173.02 36.30,172.99 37.41,172.07 C38.24,171.39 39.38,171.12 39.96,171.47 C40.53,171.83 41.00,171.37 41.00,170.45 C41.00,169.38 41.54,168.99 42.50,169.36 C44.13,169.99 47.28,166.07 46.79,164.01 C46.62,163.32 47.75,162.65 49.40,162.45 C50.73,162.29 52.20,161.82 52.98,161.34 C50.77,163.08 47.84,166.38 46.51,169.00 C44.31,173.33 42.00,184.58 42.00,190.94 C42.00,191.47 42.01,191.93 42.04,192.32 C41.45,190.49 41.00,187.43 41.00,184.48 C41.00,181.06 38.82,179.20 37.28,181.31 C34.41,185.23 30.43,196.53 30.08,201.75 C29.94,203.89 27.26,203.12 26.63,200.75 ZM 29.48 56.61 C30.99,60.21 32.45,60.73 35.18,58.66 C36.74,57.47 36.60,56.36 33.18,43.65 C29.68,30.61 29.38,29.94 27.10,30.21 C22.66,30.74 22.36,33.02 25.33,43.54 C26.84,48.87 28.70,54.75 29.48,56.61 ZM 82.82 88.01 C82.89,87.46 82.80,86.72 82.60,85.69 C82.19,83.51 82.48,81.74 83.46,80.45 C84.27,79.38 84.95,77.32 84.97,75.88 C84.99,74.36 86.70,71.12 89.07,68.15 C91.42,65.20 92.83,62.54 92.42,61.86 C91.97,61.13 92.12,60.96 92.83,61.40 C94.55,62.46 100.93,59.06 102.77,56.10 C103.66,54.67 104.50,53.34 104.63,53.15 C104.75,52.97 106.29,53.12 108.03,53.51 L 111.21 54.20 L 103.05 61.75 C94.06,70.07 93.12,71.50 89.64,82.17 C87.43,88.92 84.22,96.32 81.90,100.00 C78.23,105.81 76.26,114.28 76.74,119.94 C76.70,119.74 76.63,119.51 76.52,119.25 C74.17,113.29 74.64,111.17 81.29,97.74 C84.89,90.46 88.76,81.35 89.89,77.50 C92.39,68.99 96.06,64.32 104.08,59.45 C107.40,57.43 109.89,55.56 109.62,55.29 C108.81,54.48 98.75,59.47 95.30,62.39 C91.72,65.42 88.54,71.65 84.53,83.50 C84.09,84.80 83.50,86.35 82.82,88.01 ZM 59.73 120.87 C62.25,123.59 64.00,124.70 64.00,123.56 C64.00,123.32 61.31,118.29 58.03,112.38 C52.28,102.06 43.87,83.30 42.46,77.69 C41.49,73.84 39.93,74.36 40.44,78.37 C41.03,82.99 46.91,98.00 48.13,98.00 C48.67,98.00 48.84,98.45 48.50,98.99 C47.77,100.19 55.82,116.00 57.17,116.00 C57.69,116.00 57.86,116.42 57.54,116.94 C57.22,117.45 58.21,119.22 59.73,120.87 ZM 65.00 44.68 C65.00,45.96 64.66,46.95 64.25,46.89 C61.91,46.55 48.50,38.29 48.50,37.19 C48.50,35.60 61.14,24.97 62.23,25.64 C64.17,26.84 62.62,29.91 58.50,33.00 C56.03,34.85 54.00,36.70 54.00,37.09 C54.00,37.49 56.47,38.83 59.50,40.09 C63.93,41.92 65.00,42.82 65.00,44.68 ZM 84.11 36.05 C82.33,37.54 78.87,40.19 76.43,41.94 C72.06,45.08 72.00,45.09 72.03,42.81 C72.05,41.26 73.54,39.39 76.53,37.13 C78.99,35.28 81.00,33.42 81.00,33.01 C81.00,32.59 78.73,31.27 75.95,30.07 C71.25,28.05 68.96,25.71 70.34,24.33 C71.25,23.41 86.17,30.29 86.79,31.91 C87.12,32.76 86.03,34.45 84.11,36.05 ZM 75.00 123.83 C73.07,121.75 70.96,120.03 70.30,120.02 C69.63,120.01 68.79,118.40 68.42,116.44 C67.84,113.32 68.15,112.49 70.88,109.82 C72.59,108.14 74.04,106.48 74.09,106.13 C74.13,105.78 74.30,103.39 74.46,100.81 C74.62,98.14 75.44,95.41 76.37,94.49 C77.27,93.59 78.00,92.43 78.00,91.90 C78.00,91.38 79.17,90.50 80.61,89.96 C81.52,89.61 82.10,89.32 82.44,88.92 C80.89,92.64 78.99,96.74 77.41,99.65 C72.72,108.32 71.65,114.87 74.24,119.01 C75.44,120.93 76.73,121.45 76.79,120.46 C77.01,122.38 77.54,123.94 78.41,124.90 C79.36,125.94 79.76,126.99 79.32,127.21 C78.87,127.43 76.93,125.91 75.00,123.83 ZM 147.07 130.28 C147.80,128.56 148.37,126.97 148.41,126.50 C148.46,125.95 150.30,125.43 152.49,125.35 C155.87,125.21 157.03,125.75 160.03,128.85 C161.99,130.86 165.85,134.55 168.62,137.05 C172.48,140.53 173.93,142.68 174.83,146.24 C176.29,152.03 176.33,156.00 174.93,156.00 C174.34,156.00 174.13,156.84 174.47,157.92 C174.51,158.02 174.53,158.11 174.56,158.21 C174.48,158.07 174.39,157.93 174.28,157.79 C173.71,157.08 171.74,151.60 169.92,145.61 C166.30,133.76 164.80,131.92 155.16,127.57 C151.17,125.77 150.91,125.77 149.04,127.47 C148.40,128.04 147.70,129.09 147.07,130.28 ZM 30.02 191.99 C30.03,195.92 30.31,197.07 31.00,196.00 C31.53,195.18 31.98,193.02 31.98,191.22 C32.01,186.70 34.17,182.05 37.88,178.56 C40.74,175.87 42.11,172.00 40.20,172.00 C38.44,172.00 31.91,179.83 30.99,183.05 C30.44,184.94 30.01,188.96 30.02,191.99 ZM 95.75 106.77 C98.36,108.45 101.06,109.87 101.75,109.91 C104.37,110.10 102.82,107.89 98.41,105.15 L 93.82 102.29 L 98.41 99.60 C102.80,97.03 104.31,95.00 101.84,95.00 C99.89,95.00 91.00,101.12 91.00,102.46 C91.00,103.15 93.14,105.09 95.75,106.77 ZM 119.00 108.68 C119.00,110.58 119.76,110.36 125.21,106.87 C128.23,104.93 129.98,103.13 129.79,102.15 C129.42,100.22 120.26,94.40 119.24,95.45 C118.83,95.86 119.53,96.94 120.79,97.85 C124.85,100.79 126.56,101.87 126.45,102.71 C126.37,103.37 125.19,103.89 123.17,105.03 C120.87,106.31 119.00,107.96 119.00,108.68 ZM 107.64 106.81 C105.57,111.95 105.39,113.07 106.64,112.81 C107.56,112.63 109.79,108.46 112.10,102.64 C114.24,97.22 116.00,92.61 116.00,92.39 C116.00,92.18 115.37,92.00 114.59,92.00 C113.82,92.00 112.51,93.91 111.68,96.25 C110.85,98.59 109.03,103.34 107.64,106.81 ZM 171.42 156.72 C170.39,154.40 169.26,152.27 168.91,152.00 C168.55,151.73 166.67,148.35 164.74,144.50 C162.01,139.06 160.33,136.99 157.23,135.25 C153.73,133.28 147.51,132.40 148.51,134.01 C148.71,134.34 148.00,135.14 146.94,135.81 C146.59,136.02 146.29,136.19 146.04,136.29 C146.56,135.85 147.26,135.04 147.96,134.06 C150.79,130.08 153.14,130.20 159.15,134.61 C163.88,138.08 167.00,142.34 167.00,145.32 C167.00,146.10 168.42,149.97 170.16,153.91 C172.26,158.65 173.66,160.74 174.32,160.08 C174.58,159.82 174.73,159.55 174.78,159.26 C175.02,161.45 172.97,160.24 171.42,156.72 ZM 42.81 193.86 C43.39,193.02 44.19,189.93 44.86,185.25 C46.28,175.43 48.27,170.32 52.88,164.60 C54.16,163.00 55.17,161.51 55.50,160.76 C55.67,162.31 54.27,166.01 51.95,168.50 C50.40,170.15 48.84,172.85 48.47,174.50 C48.10,176.15 46.95,180.00 45.90,183.07 C44.86,186.13 44.00,189.84 44.00,191.32 C44.00,192.79 43.61,194.00 43.12,194.00 C43.02,194.00 42.92,193.95 42.81,193.86 ZM 38.33 71.20 C40.12,72.32 40.28,71.38 38.98,67.32 C36.78,60.45 34.28,59.78 36.14,66.56 C36.73,68.73 37.72,70.81 38.33,71.20 ZM 160.41 27.08 C176.06,33.93 191.14,44.90 201.85,57.31 C202.30,57.83 202.71,58.33 203.10,58.81 C200.38,55.50 196.02,51.01 191.10,46.65 C182.34,38.89 171.87,32.24 160.41,27.08 ZM 62.69 21.08 C77.95,17.24 90.53,15.89 106.64,16.13 C99.23,16.05 91.78,16.31 85.46,16.96 C78.83,17.64 70.61,19.20 62.69,21.08 ZM 143.90 42.32 C139.14,41.76 133.72,41.59 124.50,41.56 C119.98,41.55 115.66,41.63 111.81,41.78 C115.62,41.62 119.82,41.52 124.00,41.52 C133.53,41.51 138.86,41.67 143.90,42.32 ZM 189.16 55.91 C180.59,51.99 173.49,49.34 165.59,47.09 C174.15,49.50 181.59,52.30 189.16,55.91 ZM 55.23 160.13 C54.80,160.13 54.13,160.48 53.34,161.06 C53.35,161.05 53.35,161.05 53.35,161.05 C54.30,160.10 54.91,159.88 55.23,160.13 ZM 116.39 16.45 C120.98,16.67 124.97,17.00 128.71,17.52 C125.00,17.04 120.80,16.68 116.39,16.45 ZM 205.93 63.04 C206.26,63.83 206.12,64.17 205.42,63.86 C205.97,63.93 206.12,63.63 205.93,63.04 ZM 145.13 136.21 C144.99,135.90 145.08,135.28 145.41,134.31 C145.18,135.10 145.07,135.77 145.13,136.21 ZM 45.54 52.93 C44.79,51.69 43.77,50.80 42.65,50.36 C43.84,50.81 44.81,51.67 45.54,52.93 ZM 78.04 48.43 C70.49,50.79 62.77,53.51 57.00,55.91 L 47.50 59.88 L 47.46 59.68 L 47.50 59.88 L 57.00 55.91 C62.78,53.50 70.50,50.79 78.04,48.43 Z" fill="rgba(68,12,17,1)"/>
<path d="M 59.73 120.87 C58.21,119.22 57.22,117.45 57.54,116.94 C57.86,116.42 57.69,116.00 57.17,116.00 C55.82,116.00 47.77,100.19 48.50,98.99 C48.84,98.45 48.67,98.00 48.13,98.00 C46.91,98.00 41.03,82.99 40.44,78.37 C39.93,74.36 41.49,73.84 42.46,77.69 C43.87,83.30 52.28,102.06 58.03,112.38 C61.31,118.29 64.00,123.32 64.00,123.56 C64.00,124.70 62.25,123.59 59.73,120.87 ZM 74.24 119.01 C71.65,114.87 72.72,108.32 77.41,99.65 C79.83,95.17 83.04,87.90 84.53,83.50 C86.15,78.71 87.63,74.84 89.06,71.72 C88.47,73.23 88.20,74.52 88.53,75.05 C88.88,75.62 88.76,76.63 88.26,77.29 C87.76,77.96 87.30,79.56 87.23,80.86 C87.16,82.16 87.27,83.06 87.46,82.86 C88.26,82.05 92.00,70.44 92.00,68.78 C92.00,67.80 92.40,67.00 92.89,67.00 C93.38,67.00 94.08,66.24 94.44,65.31 C95.02,63.78 94.89,63.79 93.11,65.40 C92.23,66.19 91.32,67.43 90.53,68.77 C92.11,65.82 93.67,63.77 95.30,62.39 C98.75,59.47 108.81,54.48 109.62,55.29 C109.89,55.56 107.40,57.43 104.08,59.45 C96.06,64.32 92.39,68.99 89.89,77.50 C88.76,81.35 84.89,90.46 81.29,97.74 C77.63,105.12 75.84,109.09 75.36,112.15 C75.46,110.52 75.80,108.88 76.39,107.25 C78.21,102.17 77.70,101.81 74.99,106.25 C72.75,109.93 72.39,116.05 74.24,119.01 ZM 42.00 190.94 C42.00,184.58 44.31,173.33 46.51,169.00 C46.69,168.65 46.89,168.30 47.12,167.93 C45.83,170.20 45.00,172.60 45.00,174.46 C45.00,178.02 45.62,177.65 47.82,172.75 C48.11,172.10 48.50,171.35 48.94,170.56 C46.96,174.44 45.79,178.84 44.86,185.25 C43.63,193.80 42.00,197.04 42.00,190.94 ZM 170.16 153.91 C168.42,149.97 167.00,146.10 167.00,145.32 C167.00,144.95 166.95,144.56 166.86,144.15 C166.89,144.22 166.92,144.30 166.95,144.38 C168.20,147.47 169.63,150.00 170.12,150.00 C170.77,150.00 171.05,149.77 170.84,148.57 C172.36,153.31 173.80,157.20 174.28,157.79 C174.96,158.65 174.98,159.42 174.32,160.08 C173.66,160.74 172.26,158.65 170.16,153.91 ZM 42.00 162.62 C42.00,162.42 43.20,159.61 44.67,156.37 C46.15,153.14 48.73,147.16 50.42,143.09 C52.43,138.25 54.25,135.27 55.71,134.32 C54.23,135.30 52.37,138.44 50.27,143.59 C48.50,147.94 47.04,151.84 47.02,152.25 C47.01,152.66 47.27,153.00 47.59,153.00 C48.40,153.00 51.05,149.72 51.78,148.02 C50.46,151.37 43.56,162.97 42.75,162.99 C42.34,162.99 42.00,162.83 42.00,162.62 ZM 38.33 71.20 C37.72,70.81 36.73,68.73 36.14,66.56 C34.28,59.78 36.78,60.45 38.98,67.32 C40.28,71.38 40.12,72.32 38.33,71.20 ZM 156.62 132.88 C152.41,130.26 150.36,130.69 147.96,134.06 C146.76,135.74 145.56,136.89 145.29,136.62 C144.44,135.77 146.82,129.81 148.78,127.72 C147.28,129.49 147.92,131.06 150.31,130.46 C151.74,130.10 153.48,130.74 156.62,132.88 ZM 193.00 57.81 C186.81,54.65 180.83,52.07 174.40,49.85 C180.65,51.99 186.55,54.45 192.50,57.36 C198.55,60.32 203.91,62.37 204.41,61.91 C204.78,61.57 204.48,60.71 203.65,59.49 C205.93,62.37 206.75,64.17 205.25,63.83 C204.84,63.74 199.32,61.03 193.00,57.81 ZM 137.00 18.98 C146.56,21.35 155.82,24.74 164.45,28.98 C155.72,24.90 145.31,21.04 137.00,18.98 ZM 150.32 126.46 C151.33,125.91 152.26,126.26 155.16,127.57 C158.97,129.29 161.52,130.62 163.42,132.34 C162.02,131.26 160.16,130.23 157.50,128.85 C153.07,126.55 151.50,125.96 150.32,126.46 ZM 182.44 39.74 C185.48,41.93 188.37,44.24 191.10,46.65 C192.60,47.98 194.05,49.32 195.41,50.64 C191.59,47.07 186.98,43.17 182.44,39.74 ZM 52.12 162.06 C53.72,160.63 55.13,159.79 55.59,160.26 C55.69,160.35 55.55,160.72 55.24,161.26 C56.01,159.76 54.96,159.99 52.12,162.06 ZM 164.41 139.58 C163.79,138.79 163.07,138.00 162.26,137.22 C163.12,138.01 163.81,138.77 164.41,139.58 ZM 52.06 146.98 C52.02,147.09 52.00,147.19 52.00,147.25 C52.00,147.34 51.97,147.48 51.91,147.65 C51.95,147.54 51.96,147.44 51.97,147.35 C51.97,147.26 52.00,147.14 52.06,146.98 Z" fill="rgba(167,76,81,1)"/>
<path d="M 192.50 57.36 C180.06,51.27 167.88,47.18 152.22,43.81 C143.31,41.89 138.55,41.50 124.00,41.52 C113.74,41.52 103.40,42.09 99.00,42.88 C89.19,44.65 68.94,50.93 57.00,55.91 L 47.50 59.88 L 46.73 56.19 C45.88,52.14 43.74,50.00 40.53,50.00 C38.77,50.00 38.08,48.71 36.11,41.69 C34.83,37.12 33.94,32.53 34.14,31.49 C34.84,27.90 66.63,18.90 85.46,16.96 C101.85,15.27 125.84,16.21 137.00,18.98 C149.78,22.14 167.51,29.57 176.50,35.51 C189.48,44.10 206.39,60.10 204.41,61.91 C203.91,62.37 198.55,60.32 192.50,57.36 ZM 65.00 44.68 C65.00,42.82 63.93,41.92 59.50,40.09 C56.47,38.83 54.00,37.49 54.00,37.09 C54.00,37.49 56.51,38.85 59.57,40.12 C64.07,41.98 65.24,42.96 65.69,45.21 C66.29,48.22 66.39,48.27 69.74,47.37 C70.97,47.04 71.74,46.39 71.46,45.93 C70.76,44.80 71.20,43.06 72.53,41.18 C72.20,41.76 72.04,42.30 72.03,42.81 C72.00,45.09 72.06,45.08 76.43,41.94 C77.39,41.25 78.51,40.42 79.62,39.58 C77.03,41.64 74.75,43.59 74.20,44.26 C72.61,46.18 74.53,45.93 87.00,42.59 C112.96,35.63 141.47,36.86 173.00,46.30 C183.93,49.57 185.54,50.13 186.13,49.58 C186.29,49.44 186.37,49.21 186.54,48.94 C186.90,48.35 186.36,46.95 185.35,45.82 C181.33,41.34 160.98,29.36 159.65,30.69 C159.29,31.04 159.00,30.88 159.00,30.32 C159.00,28.51 147.63,24.41 134.50,21.48 C124.51,19.25 96.90,18.40 86.13,19.99 C70.89,22.24 70.13,23.35 80.62,28.05 C82.92,29.09 84.83,30.19 85.95,31.08 C82.67,28.69 71.14,23.53 70.34,24.33 C69.58,25.08 69.93,26.13 71.17,27.25 C70.36,26.65 69.67,26.06 69.23,25.55 C67.37,23.41 66.62,23.13 64.98,24.01 C64.03,24.52 63.23,25.72 63.04,26.85 C62.98,26.35 62.71,25.94 62.23,25.64 C61.74,25.34 59.00,27.26 56.09,29.63 C58.94,27.19 59.33,26.39 58.08,26.19 C55.76,25.82 48.34,27.94 41.20,31.01 C36.11,33.20 36.00,33.33 36.00,37.47 C36.00,39.80 36.46,43.01 37.01,44.61 C37.85,47.01 38.59,47.52 41.25,47.51 C43.96,47.50 44.78,48.10 46.48,51.31 C48.84,55.76 50.38,55.77 59.61,51.40 C64.68,49.00 65.05,48.62 63.62,47.19 C63.36,46.93 62.83,46.54 62.13,46.06 C63.09,46.53 63.84,46.83 64.25,46.89 C64.66,46.95 65.00,45.96 65.00,44.68 ZM 29.48 56.61 C28.70,54.75 26.84,48.87 25.33,43.54 C22.36,33.02 22.66,30.74 27.10,30.21 C29.38,29.94 29.68,30.61 33.18,43.65 C36.60,56.36 36.74,57.47 35.18,58.66 C32.45,60.73 30.99,60.21 29.48,56.61 ZM 106.70 216.75 C101.85,204.16 91.97,182.49 85.91,171.13 C83.15,165.98 81.15,161.51 81.46,161.21 C82.40,160.26 84.51,163.80 93.86,182.00 C101.78,197.41 113.00,222.70 113.00,225.13 C113.00,225.61 112.38,226.00 111.63,226.00 C110.83,226.00 108.79,222.17 106.70,216.75 ZM 166.95 144.38 C165.08,139.77 163.57,137.94 158.64,134.31 C154.17,131.03 152.02,130.03 150.31,130.46 C147.56,131.15 147.13,128.97 149.60,126.91 C150.97,125.78 152.14,126.07 157.50,128.85 C165.31,132.89 166.21,133.94 168.86,141.94 C171.25,149.14 171.38,150.00 170.12,150.00 C169.63,150.00 168.20,147.47 166.95,144.38 ZM 30.02 191.99 C30.01,188.96 30.44,184.94 30.99,183.05 C31.91,179.83 38.44,172.00 40.20,172.00 C42.11,172.00 40.74,175.87 37.88,178.56 C34.17,182.05 32.01,186.70 31.98,191.22 C31.98,193.02 31.53,195.18 31.00,196.00 C30.31,197.07 30.03,195.92 30.02,191.99 ZM 31.01 47.75 C33.05,54.62 34.34,56.47 35.23,53.81 C35.90,51.79 30.58,34.15 28.74,32.31 C27.09,30.66 27.00,30.67 27.00,32.64 C27.00,33.77 27.42,36.01 27.92,37.60 C28.43,39.20 29.82,43.76 31.01,47.75 ZM 47.02 152.25 C47.04,151.84 48.50,147.94 50.27,143.59 C53.59,135.44 56.32,132.32 57.90,134.85 C58.45,135.73 57.58,137.91 55.37,141.20 C53.52,143.95 51.99,146.72 51.97,147.35 C51.93,148.61 48.53,153.00 47.59,153.00 C47.27,153.00 47.01,152.66 47.02,152.25 ZM 45.00 174.46 C45.00,170.73 48.34,164.84 51.98,162.16 C56.31,158.98 56.66,159.91 52.88,164.60 C51.15,166.74 48.87,170.41 47.82,172.75 C45.62,177.65 45.00,178.02 45.00,174.46 ZM 74.24 119.01 C72.39,116.05 72.75,109.93 74.99,106.25 C77.70,101.81 78.21,102.17 76.39,107.25 C74.94,111.28 74.99,115.37 76.52,119.25 C77.47,121.64 75.77,121.47 74.24,119.01 ZM 87.23 80.86 C87.30,79.56 87.76,77.96 88.26,77.29 C88.76,76.63 88.88,75.62 88.53,75.05 C87.71,73.72 90.57,67.70 93.11,65.40 C94.89,63.79 95.02,63.78 94.44,65.31 C94.08,66.24 93.38,67.00 92.89,67.00 C92.40,67.00 92.00,67.80 92.00,68.78 C92.00,70.44 88.26,82.05 87.46,82.86 C87.27,83.06 87.16,82.16 87.23,80.86 ZM 53.39 40.99 C50.58,39.39 48.42,37.88 48.27,37.38 C48.08,36.76 50.64,34.06 53.96,31.38 C54.19,31.20 54.40,31.03 54.60,30.86 C51.44,33.55 48.50,36.42 48.50,37.19 C48.50,37.63 50.66,39.22 53.39,40.99 ZM 58.50 33.00 C61.01,31.12 62.56,29.25 62.96,27.80 C62.70,29.24 61.24,30.95 58.50,33.00 ZM 86.43 33.47 C86.80,32.84 86.94,32.30 86.80,31.91 C86.93,32.10 87.00,32.26 87.00,32.40 C87.00,32.63 86.80,33.00 86.43,33.47 Z" fill="rgba(226,91,99,1)"/>
<path d="M 59.00 178.45 C59.00,175.03 61.69,170.00 63.53,170.00 C64.34,170.00 65.00,170.24 65.00,170.53 C65.00,171.48 59.98,181.00 59.48,181.00 C59.22,181.00 59.00,179.85 59.00,178.45 ZM 66.00 166.53 C66.00,165.22 70.51,157.00 71.23,157.00 C73.33,157.00 72.98,160.34 70.56,163.51 C68.25,166.53 66.00,168.03 66.00,166.53 ZM 63.53 163.80 C63.14,162.86 63.08,161.68 63.40,161.16 C63.72,160.65 63.36,159.71 62.60,159.08 C61.42,158.11 61.42,157.24 62.61,153.31 C63.37,150.76 64.00,147.63 64.00,146.34 C64.00,145.05 64.46,144.00 65.03,144.00 C67.11,144.00 67.13,147.04 65.09,152.49 C62.68,158.93 62.67,159.00 64.00,159.00 C64.56,159.00 65.55,156.98 66.21,154.50 C67.48,149.75 68.38,148.94 69.42,151.64 C70.32,154.00 64.48,166.07 63.53,163.80 ZM 73.40 155.84 C72.50,154.38 73.44,153.85 78.56,152.89 C83.73,151.92 85.00,152.31 84.99,154.81 C84.99,156.17 83.92,156.53 79.49,156.66 C76.48,156.75 73.73,156.38 73.40,155.84 ZM 71.13 150.65 C69.53,148.73 70.55,148.19 77.21,147.40 C81.61,146.89 82.81,147.06 83.28,148.28 C83.71,149.42 82.92,149.97 80.18,150.47 C78.16,150.84 75.57,151.36 74.43,151.63 C73.27,151.91 71.81,151.47 71.13,150.65 ZM 68.52 146.19 C66.96,144.62 68.49,143.09 72.25,142.47 C74.59,142.08 77.34,141.32 78.38,140.78 C80.33,139.75 82.31,141.40 81.65,143.50 C81.31,144.59 69.37,147.04 68.52,146.19 ZM 65.50 139.99 C65.15,139.44 65.46,138.81 66.19,138.60 C66.91,138.39 69.68,137.44 72.33,136.50 C75.89,135.23 77.46,135.06 78.28,135.88 C79.69,137.29 78.55,138.38 74.10,139.86 C69.90,141.27 66.32,141.32 65.50,139.99 ZM 107.64 106.81 C109.03,103.34 110.85,98.59 111.68,96.25 C112.51,93.91 113.82,92.00 114.59,92.00 C115.37,92.00 116.00,92.18 116.00,92.39 C116.00,92.61 114.24,97.22 112.10,102.64 C109.79,108.46 107.56,112.63 106.64,112.81 C105.39,113.07 105.57,111.95 107.64,106.81 ZM 95.75 106.77 C93.14,105.09 91.00,103.15 91.00,102.46 C91.00,101.12 99.89,95.00 101.84,95.00 C104.31,95.00 102.80,97.03 98.41,99.60 L 93.82 102.29 L 98.41 105.15 C102.82,107.89 104.37,110.10 101.75,109.91 C101.06,109.87 98.36,108.45 95.75,106.77 ZM 119.00 108.68 C119.00,107.96 120.87,106.31 123.17,105.03 C127.80,102.42 128.01,103.06 120.79,97.85 C119.53,96.94 118.83,95.86 119.24,95.45 C120.26,94.40 129.42,100.22 129.79,102.15 C129.98,103.13 128.23,104.93 125.21,106.87 C119.76,110.36 119.00,110.58 119.00,108.68 ZM 31.01 47.75 C29.82,43.76 28.43,39.20 27.92,37.60 C27.42,36.01 27.00,33.77 27.00,32.64 C27.00,30.67 27.09,30.66 28.74,32.31 C30.58,34.15 35.90,51.79 35.23,53.81 C34.34,56.47 33.05,54.62 31.01,47.75 ZM 46.48 51.31 C44.78,48.10 43.96,47.50 41.25,47.51 C38.59,47.52 37.85,47.01 37.01,44.61 C36.46,43.01 36.00,39.80 36.00,37.47 C36.00,33.33 36.11,33.20 41.20,31.01 C48.34,27.94 55.76,25.82 58.08,26.19 C59.59,26.43 58.71,27.55 53.96,31.38 C50.64,34.06 48.08,36.76 48.27,37.38 C48.46,38.00 51.64,40.10 55.33,42.06 C59.03,44.02 62.76,46.33 63.62,47.19 C65.05,48.62 64.68,49.00 59.61,51.40 C50.38,55.77 48.84,55.76 46.48,51.31 ZM 173.00 46.30 C141.47,36.86 112.96,35.63 87.00,42.59 C74.53,45.93 72.61,46.18 74.20,44.26 C74.86,43.46 78.02,40.80 81.20,38.34 C84.39,35.89 87.00,33.22 87.00,32.40 C87.00,31.54 84.31,29.71 80.62,28.05 C70.13,23.35 70.89,22.24 86.13,19.99 C96.90,18.40 124.51,19.25 134.50,21.48 C147.63,24.41 159.00,28.51 159.00,30.32 C159.00,30.88 159.29,31.04 159.65,30.69 C160.98,29.36 181.33,41.34 185.35,45.82 C186.36,46.95 186.90,48.35 186.54,48.94 C185.74,50.23 186.85,50.45 173.00,46.30 ZM 65.69 45.21 C65.24,42.96 64.07,41.98 59.57,40.12 C56.51,38.85 54.00,37.49 54.00,37.09 C54.00,36.70 56.03,34.85 58.50,33.00 C61.53,30.73 63.00,28.88 63.00,27.35 C63.00,26.10 63.89,24.59 64.98,24.01 C66.62,23.13 67.37,23.41 69.23,25.55 C70.48,26.99 73.64,29.08 76.25,30.20 C78.86,31.33 81.00,32.59 81.00,33.01 C81.00,33.42 79.00,35.28 76.57,37.13 C72.42,40.28 70.26,44.00 71.46,45.93 C71.74,46.39 70.97,47.04 69.74,47.37 C66.39,48.27 66.29,48.22 65.69,45.21 Z" fill="rgba(243,150,153,1)"/>
</g>
</svg>