<svg xmlns="http://www.w3.org/2000/svg" width="897" height="278" viewBox="0 0 897 278">
<g>
<path d="M 769.52 238.10 C769.05,238.33 768.55,238.55 768.02,238.78 C764.94,240.07 721.07,240.29 417.00,240.50 C303.24,240.58 223.81,240.59 169.30,240.50 C191.13,240.45 217.25,240.36 248.50,240.25 C346.95,239.89 471.83,239.65 526.00,239.72 C718.64,239.96 759.55,240.33 769.52,238.10 ZM 575.50 220.00 C575.88,220.61 574.32,221.00 571.50,221.00 C568.68,221.00 567.12,220.61 567.50,220.00 C567.84,219.45 569.64,219.00 571.50,219.00 C573.36,219.00 575.16,219.45 575.50,220.00 ZM 594.50 220.05 C591.67,221.19 584.76,221.20 585.46,220.06 C585.78,219.54 588.40,219.14 591.27,219.18 C594.96,219.23 595.91,219.48 594.50,220.05 ZM 775.15 233.06 C774.56,234.01 773.97,234.79 773.34,235.44 C773.56,235.05 773.82,234.62 774.23,234.16 C774.55,233.81 774.86,233.45 775.15,233.06 ZM 47.81 236.69 C45.32,235.88 43.34,234.97 41.80,233.93 C43.33,234.96 45.32,235.87 47.81,236.69 Z" fill="rgba(0,0,0,1)"/>
<path d="M 60.84 239.56 C48.43,237.64 41.69,235.15 39.03,231.27 L 63.40 230.61 C90.84,229.85 105.67,230.73 123.50,234.16 C133.52,236.09 136.64,236.22 158.50,235.65 C171.70,235.31 187.68,234.53 194.00,233.90 C201.43,233.17 214.70,233.00 231.50,233.42 C247.39,233.81 259.51,233.68 262.66,233.08 C265.49,232.53 283.94,231.85 303.66,231.56 C323.37,231.27 357.73,230.76 380.00,230.43 C412.92,229.95 420.80,229.57 422.08,228.42 C423.42,227.22 438.18,226.98 518.58,226.88 C608.83,226.77 632.17,226.23 610.00,224.77 C604.78,224.42 530.08,224.10 444.00,224.05 C286.17,223.95 251.10,223.31 248.10,220.46 C246.07,218.53 248.00,209.93 252.47,201.07 C254.42,197.18 255.74,194.00 255.39,194.00 C255.04,194.00 255.22,193.44 255.79,192.75 C256.98,191.32 256.92,191.43 283.90,136.75 C294.95,114.34 304.00,95.74 304.00,95.42 C304.00,94.82 315.02,72.54 317.56,68.00 C318.33,66.62 319.79,63.70 320.79,61.50 C321.80,59.30 323.14,56.60 323.78,55.50 C324.41,54.40 326.57,49.91 328.57,45.51 C331.62,38.81 333.44,34.65 336.57,32.08 C341.78,27.78 350.61,27.88 374.79,27.91 C391.13,27.92 411.93,27.51 421.01,27.00 C430.09,26.48 448.31,26.01 461.51,25.97 C474.70,25.92 497.42,25.45 512.00,24.92 C526.58,24.39 580.29,23.75 631.37,23.49 C693.08,23.17 726.39,22.64 730.65,21.90 C742.48,19.84 747.67,22.52 746.76,30.23 C746.27,34.30 743.79,40.84 721.67,96.50 C708.68,129.18 708.50,129.56 705.26,130.84 C703.74,131.44 698.21,132.11 692.96,132.34 C681.79,132.81 677.11,134.72 671.74,140.99 C668.14,145.20 662.81,157.81 660.95,166.50 C660.36,169.25 658.84,175.32 657.56,180.00 C652.68,197.79 649.75,211.67 649.85,216.50 C649.98,222.40 649.48,223.35 645.50,224.78 C642.63,225.82 642.60,225.89 644.74,226.55 C646.28,227.02 647.32,228.49 648.07,231.26 C648.67,233.47 650.31,236.46 651.72,237.89 L 653.70 239.89 C621.06,239.86 579.35,239.79 526.00,239.72 C471.83,239.65 346.95,239.89 248.50,240.25 C101.31,240.79 67.96,240.67 60.84,239.56 ZM 758.14 228.92 C755.76,230.20 683.37,231.16 678.72,229.98 C666.33,226.83 664.72,222.55 669.87,206.46 C671.44,201.53 673.05,196.15 673.44,194.50 C674.13,191.60 676.63,188.00 677.96,188.00 C678.31,188.00 679.44,190.32 680.46,193.16 C682.43,198.64 687.85,204.84 693.00,207.50 C694.71,208.38 698.45,209.38 701.30,209.72 C704.16,210.05 707.70,211.21 709.17,212.29 C712.47,214.72 717.64,214.03 721.13,210.68 C722.43,209.43 727.02,203.33 731.31,197.14 C736.78,189.26 739.63,185.97 740.81,186.20 C743.47,186.71 743.36,190.58 740.56,194.69 C737.40,199.35 737.14,204.92 739.97,207.48 C744.30,211.39 758.39,206.74 765.26,199.14 C770.04,193.84 770.70,189.96 768.04,182.83 C764.97,174.64 758.96,168.66 751.69,166.58 C748.50,165.66 743.72,163.58 741.08,161.96 C738.44,160.33 735.43,159.00 734.39,159.00 C731.92,159.01 725.67,164.80 723.46,169.11 C722.51,170.97 720.82,173.79 719.71,175.37 L 717.69 178.24 L 715.60 173.87 C713.08,168.63 709.91,166.78 704.39,167.32 C698.58,167.89 692.00,171.45 685.28,177.67 C679.54,182.99 679.50,183.00 679.17,180.35 C678.59,175.70 679.93,171.42 683.87,165.33 C687.15,160.25 688.60,159.00 694.09,156.50 C702.13,152.84 712.16,152.03 720.29,154.40 C727.57,156.51 732.16,156.42 736.19,154.08 C741.03,151.26 749.70,150.01 759.52,150.70 C774.12,151.73 776.65,155.05 777.65,174.50 C778.16,184.32 777.93,186.62 775.51,196.00 C774.02,201.77 771.45,209.20 769.80,212.50 C766.27,219.53 760.51,227.66 758.14,228.92 ZM 352.50 181.00 C353.19,182.12 484.64,182.25 498.92,181.15 C504.27,180.74 507.49,180.04 507.75,179.25 C508.29,177.64 353.49,177.39 352.50,179.00 C352.16,179.55 352.16,180.45 352.50,181.00 ZM 435.00 111.89 C440.05,113.19 457.36,113.19 462.53,111.89 C477.34,108.16 462.73,103.66 443.00,105.87 C437.77,106.46 419.55,107.23 402.50,107.59 C373.87,108.20 368.40,108.73 370.37,110.70 C370.77,111.10 384.69,111.33 401.30,111.21 C417.91,111.09 433.08,111.40 435.00,111.89 ZM 383.48 88.97 C383.97,89.77 401.57,89.89 446.83,89.42 C499.86,88.86 509.73,88.53 511.00,87.29 C512.32,86.01 504.66,85.87 448.33,86.17 C413.04,86.35 383.86,86.81 383.48,87.18 C383.11,87.56 383.11,88.36 383.48,88.97 ZM 401.50 149.00 C402.19,150.11 479.33,150.23 489.42,149.14 C492.77,148.78 495.52,147.96 495.75,147.25 C496.28,145.65 402.49,145.40 401.50,147.00 C401.16,147.55 401.16,148.45 401.50,149.00 ZM 380.68 132.34 C381.45,133.12 427.93,132.98 456.92,132.11 C471.92,131.66 477.45,131.17 477.75,130.25 C478.39,128.34 382.72,128.43 381.13,130.34 C380.52,131.08 380.31,131.98 380.68,132.34 ZM 476.51 110.01 C477.09,110.96 555.59,110.42 558.75,109.45 C559.44,109.24 560.00,108.60 560.00,108.03 C560.00,106.63 477.37,106.60 476.50,108.00 C476.16,108.55 476.16,109.46 476.51,110.01 ZM 361.00 164.11 C361.00,164.62 380.01,165.00 405.39,165.00 C443.93,165.00 449.86,164.80 450.36,163.50 C450.87,162.18 445.71,162.00 407.55,162.00 C383.69,162.00 363.45,162.27 362.58,162.61 C361.71,162.94 361.00,163.62 361.00,164.11 ZM 316.25 194.75 C315.92,195.73 322.59,196.00 347.42,196.00 C374.96,196.00 379.00,195.81 379.00,194.49 C379.00,193.16 375.12,193.00 347.83,193.24 C323.98,193.44 316.57,193.79 316.25,194.75 ZM 504.12 149.10 C507.04,150.95 546.09,149.25 546.75,147.25 C547.31,145.56 504.48,145.42 503.43,147.11 C503.05,147.72 503.36,148.62 504.12,149.10 ZM 557.00 147.61 C557.00,148.75 560.35,149.00 575.44,149.00 C592.44,149.00 596.74,148.40 594.66,146.33 C593.99,145.65 559.96,145.11 558.25,145.75 C557.56,146.00 557.00,146.84 557.00,147.61 ZM 392.00 99.63 C392.00,101.11 393.85,101.20 411.75,100.55 C422.61,100.15 431.93,99.42 432.45,98.91 C433.02,98.36 425.23,98.00 412.70,98.00 C394.22,98.00 392.00,98.18 392.00,99.63 ZM 372.24 69.77 C371.91,70.78 375.45,70.99 389.08,70.77 C400.77,70.59 406.46,70.14 406.71,69.37 C407.33,67.51 405.18,67.33 388.58,67.93 C376.99,68.34 372.55,68.85 372.24,69.77 ZM 413.68 70.34 C414.04,70.70 418.70,71.00 424.04,71.00 C430.95,71.00 434.08,70.61 434.87,69.66 C436.72,67.43 435.11,67.00 424.96,67.00 C418.05,67.00 414.92,67.39 414.13,68.34 C413.52,69.08 413.31,69.98 413.68,70.34 ZM 372.25 147.75 C371.93,148.70 374.50,149.00 382.92,149.00 C392.21,149.00 394.00,148.75 394.00,147.47 C394.00,146.17 392.38,145.98 383.33,146.22 C375.90,146.41 372.54,146.88 372.25,147.75 ZM 713.89 188.66 C711.53,194.19 710.10,195.76 708.69,194.35 C708.31,193.98 708.00,192.61 708.00,191.32 C708.00,188.73 714.40,181.07 715.58,182.24 C715.98,182.65 715.23,185.54 713.89,188.66 ZM 457.24 163.75 C457.01,164.47 457.68,165.00 458.83,165.00 C461.58,165.00 464.00,163.98 464.00,162.83 C464.00,161.43 457.73,162.28 457.24,163.75 ZM 575.50 220.00 C575.16,219.45 573.36,219.00 571.50,219.00 C569.64,219.00 567.84,219.45 567.50,220.00 C567.12,220.61 568.68,221.00 571.50,221.00 C574.32,221.00 575.88,220.61 575.50,220.00 ZM 594.50 220.05 C595.91,219.48 594.96,219.23 591.27,219.18 C588.40,219.14 585.78,219.54 585.46,220.06 C584.76,221.20 591.67,221.19 594.50,220.05 ZM 356.92 98.60 C355.76,99.99 355.90,100.15 357.97,99.85 C359.28,99.66 360.53,98.94 360.76,98.25 C361.35,96.45 358.49,96.71 356.92,98.60 ZM 326.00 164.11 C326.00,165.36 328.74,165.22 329.54,163.93 C329.90,163.35 329.99,162.66 329.74,162.41 C329.05,161.71 326.00,163.09 326.00,164.11 ZM 304.22 194.85 C303.93,195.71 304.41,196.07 305.55,195.85 C306.53,195.66 307.54,194.89 307.78,194.15 C308.07,193.29 307.59,192.93 306.45,193.15 C305.47,193.34 304.46,194.11 304.22,194.85 ZM 351.00 110.11 C351.00,111.25 353.71,111.28 354.41,110.14 C354.71,109.67 354.69,109.02 354.38,108.71 C353.59,107.93 351.00,109.00 351.00,110.11 ZM 340.50 133.00 C340.16,133.55 340.78,134.00 341.88,134.00 C342.98,134.00 344.16,133.55 344.50,133.00 C344.84,132.45 344.22,132.00 343.12,132.00 C342.02,132.00 340.84,132.45 340.50,133.00 ZM 318.00 179.00 C318.00,179.55 318.90,180.00 320.00,180.00 C321.10,180.00 322.00,179.55 322.00,179.00 C322.00,178.45 321.10,178.00 320.00,178.00 C318.90,178.00 318.00,178.45 318.00,179.00 ZM 334.00 148.00 C334.00,148.55 334.65,149.00 335.44,149.00 C336.23,149.00 337.16,148.55 337.50,148.00 C337.84,147.45 337.19,147.00 336.06,147.00 C334.93,147.00 334.00,147.45 334.00,148.00 ZM 359.00 70.00 C359.00,70.55 359.65,71.00 360.44,71.00 C361.23,71.00 362.16,70.55 362.50,70.00 C362.84,69.45 362.19,69.00 361.06,69.00 C359.93,69.00 359.00,69.45 359.00,70.00 ZM 361.50 88.00 C361.16,88.55 361.81,89.00 362.94,89.00 C364.07,89.00 365.00,88.55 365.00,88.00 C365.00,87.45 364.35,87.00 363.56,87.00 C362.77,87.00 361.84,87.45 361.50,88.00 ZM 346.00 122.00 C346.00,122.55 346.65,123.00 347.44,123.00 C348.23,123.00 349.16,122.55 349.50,122.00 C349.84,121.45 349.19,121.00 348.06,121.00 C346.93,121.00 346.00,121.45 346.00,122.00 ZM 629.00 86.00 C629.00,86.55 629.42,87.00 629.94,87.00 C630.46,87.00 631.16,86.55 631.50,86.00 C631.84,85.45 631.42,85.00 630.56,85.00 C629.70,85.00 629.00,85.45 629.00,86.00 ZM 337.00 180.00 C337.00,180.55 337.42,181.00 337.94,181.00 C338.46,181.00 339.16,180.55 339.50,180.00 C339.84,179.45 339.42,179.00 338.56,179.00 C337.70,179.00 337.00,179.45 337.00,180.00 ZM 769.28 238.16 C770.91,237.22 772.87,235.67 774.23,234.16 C773.50,234.97 773.26,235.67 772.87,236.28 C772.37,237.05 771.62,237.67 769.28,238.16 ZM 37.55 225.17 L 37.50 224.50 L 49.24 224.44 C42.03,224.58 37.88,224.72 37.74,224.86 C37.67,224.93 37.60,225.04 37.55,225.17 Z" fill="rgba(5,26,55,1)"/>
<path d="M 765.04 236.89 C763.09,237.36 757.90,237.69 753.50,237.64 C749.10,237.58 726.52,237.30 703.33,237.02 L 661.16 236.50 L 658.58 234.08 C656.80,232.41 656.00,230.61 656.00,228.30 C656.00,225.37 658.73,214.74 673.23,161.14 C676.44,149.31 678.83,145.17 684.02,142.49 C686.32,141.30 695.92,141.00 738.81,140.78 L 790.82 140.50 L 793.31 142.83 C794.19,143.66 794.92,144.27 795.45,145.04 C797.79,148.46 795.90,154.79 784.42,196.00 C780.37,210.57 776.53,224.07 775.91,226.00 C774.35,230.80 769.29,235.87 765.04,236.89 ZM 651.72 237.89 C650.31,236.46 648.67,233.47 648.07,231.26 C647.32,228.49 646.28,227.02 644.74,226.55 C642.60,225.89 642.63,225.82 645.50,224.78 C649.48,223.35 649.98,222.40 649.85,216.50 C649.75,211.67 652.68,197.79 657.56,180.00 C658.84,175.32 660.36,169.25 660.95,166.50 C662.81,157.81 668.14,145.20 671.74,140.99 C677.11,134.72 681.79,132.81 692.96,132.34 C698.21,132.11 703.74,131.44 705.26,130.84 C708.50,129.56 708.68,129.18 721.67,96.50 C743.79,40.84 746.27,34.30 746.76,30.23 C747.67,22.52 742.48,19.84 730.65,21.90 C726.39,22.64 693.08,23.17 631.37,23.49 C580.29,23.75 526.58,24.39 512.00,24.92 C497.42,25.45 474.70,25.92 461.51,25.97 C448.31,26.01 430.09,26.48 421.01,27.00 C411.93,27.51 391.13,27.92 374.79,27.91 C350.61,27.88 341.78,27.78 336.57,32.08 C333.44,34.65 331.62,38.81 328.57,45.51 C326.57,49.91 324.41,54.40 323.78,55.50 C323.14,56.60 321.80,59.30 320.79,61.50 C319.79,63.70 318.33,66.62 317.56,68.00 C315.02,72.54 304.00,94.82 304.00,95.42 C304.00,95.74 294.95,114.34 283.90,136.75 C256.92,191.43 256.98,191.32 255.79,192.75 C255.22,193.44 255.04,194.00 255.39,194.00 C255.74,194.00 254.42,197.18 252.47,201.07 C248.00,209.93 246.07,218.53 248.10,220.46 C251.10,223.31 286.17,223.95 444.00,224.05 C530.08,224.10 604.78,224.42 610.00,224.77 C632.17,226.23 608.83,226.77 518.58,226.88 C438.18,226.98 423.42,227.22 422.08,228.42 C420.80,229.57 412.92,229.95 380.00,230.43 C357.73,230.76 323.37,231.27 303.66,231.56 C283.94,231.85 265.49,232.53 262.66,233.08 C259.51,233.68 247.39,233.81 231.50,233.42 C214.70,233.00 201.43,233.17 194.00,233.90 C187.68,234.53 171.70,235.31 158.50,235.65 C136.64,236.22 133.52,236.09 123.50,234.16 C105.67,230.73 90.84,229.85 63.40,230.61 L 38.29 231.29 L 37.59 228.50 C37.36,227.59 37.29,226.65 37.37,225.93 C38.87,226.77 54.17,227.00 104.02,227.00 L 171.21 227.00 L 173.18 229.50 C174.97,231.78 175.82,232.00 182.87,232.00 C187.72,232.00 191.06,231.53 191.85,230.75 C193.71,228.88 233.42,228.09 367.67,227.24 C432.11,226.83 485.17,226.16 485.58,225.75 C486.28,225.06 418.33,224.79 292.23,225.00 C249.84,225.07 240.88,224.85 240.45,223.72 C240.16,222.97 246.52,208.89 254.58,192.43 C262.65,175.97 273.63,153.50 279.00,142.50 C284.36,131.50 294.26,111.25 301.00,97.50 C307.73,83.75 317.62,63.50 322.97,52.50 C332.69,32.53 335.05,29.06 340.27,27.09 C342.84,26.11 420.03,24.89 566.00,23.51 C592.67,23.26 638.12,22.64 667.00,22.14 C695.88,21.63 724.81,21.17 731.31,21.11 C738.90,21.04 742.90,20.64 742.50,20.00 C742.30,19.68 741.02,19.44 737.86,19.28 C739.79,19.31 740.98,19.34 741.32,19.40 C752.03,21.05 752.73,27.19 744.60,47.81 C741.63,55.34 735.31,71.40 730.56,83.50 C725.81,95.60 720.14,109.78 717.97,115.00 C714.01,124.53 711.03,133.42 711.01,135.75 C711.00,136.64 717.86,136.94 741.54,136.99 C740.81,136.99 740.07,136.99 739.31,136.99 C710.84,136.97 689.13,137.36 687.21,137.92 C682.09,139.42 677.30,142.78 675.01,146.48 C673.86,148.35 671.84,154.06 670.52,159.18 C669.21,164.31 665.82,177.05 662.99,187.50 C660.17,197.95 656.76,210.55 655.43,215.50 C652.81,225.22 652.46,229.45 653.96,233.38 C655.08,236.33 658.83,239.01 663.06,239.88 C664.39,240.15 671.90,240.30 682.34,240.35 L 654.29 240.50 ZM 758.14 228.92 C760.51,227.66 766.27,219.53 769.80,212.50 C771.45,209.20 774.02,201.77 775.51,196.00 C777.93,186.62 778.16,184.32 777.65,174.50 C776.65,155.05 774.12,151.73 759.52,150.70 C749.70,150.01 741.03,151.26 736.19,154.08 C732.16,156.42 727.57,156.51 720.29,154.40 C712.16,152.03 702.13,152.84 694.09,156.50 C688.60,159.00 687.15,160.25 683.87,165.33 C679.93,171.42 678.59,175.70 679.17,180.35 C679.50,183.00 679.54,182.99 685.28,177.67 C692.00,171.45 698.58,167.89 704.39,167.32 C709.91,166.78 713.08,168.63 715.60,173.87 L 717.69 178.24 L 719.71 175.37 C720.82,173.79 722.51,170.97 723.46,169.11 C725.67,164.80 731.92,159.01 734.39,159.00 C735.43,159.00 738.44,160.33 741.08,161.96 C743.72,163.58 748.50,165.66 751.69,166.58 C758.96,168.66 764.97,174.64 768.04,182.83 C770.70,189.96 770.04,193.84 765.26,199.14 C758.39,206.74 744.30,211.39 739.97,207.48 C737.14,204.92 737.40,199.35 740.56,194.69 C743.36,190.58 743.47,186.71 740.81,186.20 C739.63,185.97 736.78,189.26 731.31,197.14 C727.02,203.33 722.43,209.43 721.13,210.68 C717.64,214.03 712.47,214.72 709.17,212.29 C707.70,211.21 704.16,210.05 701.30,209.72 C698.45,209.38 694.71,208.38 693.00,207.50 C687.85,204.84 682.43,198.64 680.46,193.16 C679.44,190.32 678.31,188.00 677.96,188.00 C676.63,188.00 674.13,191.60 673.44,194.50 C673.05,196.15 671.44,201.53 669.87,206.46 C664.72,222.55 666.33,226.83 678.72,229.98 C683.37,231.16 755.76,230.20 758.14,228.92 ZM 380.68 132.34 C380.31,131.98 380.52,131.08 381.13,130.34 C382.72,128.43 478.39,128.34 477.75,130.25 C477.45,131.17 471.92,131.66 456.92,132.11 C427.93,132.98 381.45,133.12 380.68,132.34 ZM 476.51 110.01 C476.16,109.46 476.16,108.55 476.50,108.00 C477.37,106.60 560.00,106.63 560.00,108.03 C560.00,108.60 559.44,109.24 558.75,109.45 C555.59,110.42 477.09,110.96 476.51,110.01 ZM 352.50 181.00 C352.16,180.45 352.16,179.55 352.50,179.00 C352.65,178.75 356.51,178.55 362.91,178.38 C361.94,178.63 361.07,178.99 360.44,179.47 C358.66,180.81 358.98,180.94 364.25,180.97 C368.71,180.99 370.00,180.66 370.00,179.50 C370.00,178.92 369.43,178.51 368.55,178.26 C388.48,177.90 423.48,177.83 453.39,178.00 C450.74,178.00 447.98,178.00 445.08,178.00 C410.39,178.00 382.00,178.38 382.00,178.83 C382.00,179.29 382.30,179.97 382.67,180.34 C383.04,180.71 411.25,180.90 445.34,180.76 C493.86,180.56 507.42,180.23 507.75,179.25 C507.75,179.24 507.75,179.24 507.75,179.23 C507.76,179.24 507.76,179.24 507.75,179.25 C507.49,180.04 504.27,180.74 498.92,181.15 C484.64,182.25 353.19,182.12 352.50,181.00 ZM 435.00 111.89 C433.08,111.40 417.91,111.09 401.30,111.21 C394.93,111.26 388.96,111.25 384.00,111.21 C385.83,110.78 387.12,110.13 387.42,109.34 C387.77,108.45 387.02,108.12 383.45,108.12 C388.19,107.93 394.42,107.76 402.50,107.59 C419.55,107.23 437.77,106.46 443.00,105.87 C454.78,104.55 464.74,105.62 467.69,107.50 C463.35,106.90 438.17,107.08 422.58,107.89 C414.39,108.31 410.53,108.89 410.25,109.75 C409.62,111.65 466.29,111.56 467.87,109.66 C468.24,109.21 468.46,108.71 468.50,108.30 C469.01,109.41 467.29,110.69 462.53,111.89 C457.36,113.19 440.05,113.19 435.00,111.89 ZM 693.67 198.46 C700.50,205.83 703.26,207.37 704.38,204.45 C704.76,203.46 703.41,201.16 700.73,198.20 C696.25,193.24 693.99,191.24 694.17,189.50 C694.35,187.78 696.88,186.31 701.96,182.53 C710.41,176.24 712.30,173.92 710.09,172.56 C708.77,171.74 687.57,187.27 687.17,189.34 C686.97,190.42 689.47,193.94 693.67,198.46 ZM 739.74 205.40 C741.06,206.73 743.02,205.69 752.80,198.50 C759.12,193.86 762.99,190.34 762.97,189.25 C762.95,188.29 759.87,184.16 756.13,180.08 C751.20,174.69 748.88,172.83 747.67,173.30 C744.96,174.34 745.70,176.15 751.50,182.66 C754.53,186.05 757.00,189.06 757.00,189.35 C757.00,189.64 753.21,192.63 748.59,195.99 C740.54,201.84 738.42,204.09 739.74,205.40 ZM 711.74 210.41 C712.11,210.77 713.03,210.94 713.80,210.78 C715.61,210.42 740.32,168.32 739.50,167.00 C737.89,164.40 735.57,167.06 727.95,180.25 C723.43,188.09 718.72,196.09 717.50,198.02 C713.69,204.05 711.06,209.72 711.74,210.41 ZM 316.25 194.75 C316.57,193.79 323.98,193.44 347.83,193.24 C375.12,193.00 379.00,193.16 379.00,194.49 C379.00,195.81 374.96,196.00 347.42,196.00 C322.59,196.00 315.92,195.73 316.25,194.75 ZM 393.94 162.03 C398.25,162.01 402.83,162.00 407.55,162.00 C445.71,162.00 450.87,162.18 450.36,163.50 C449.86,164.80 443.93,165.00 405.39,165.00 C395.59,165.00 386.74,164.94 379.56,164.84 C381.36,164.83 383.39,164.80 385.69,164.77 C400.32,164.57 405.44,164.18 405.75,163.25 C406.01,162.46 403.23,162.12 393.94,162.03 ZM 392.00 99.63 C392.00,98.18 394.22,98.00 412.70,98.00 C425.23,98.00 433.02,98.36 432.45,98.91 C431.93,99.42 422.61,100.15 411.75,100.55 C393.85,101.20 392.00,101.11 392.00,99.63 ZM 410.85 130.75 C409.85,131.75 412.86,132.00 425.88,132.00 C438.47,132.00 442.07,131.72 441.74,130.75 C441.43,129.83 437.51,129.50 426.71,129.50 C416.35,129.50 411.73,129.86 410.85,130.75 ZM 477.00 109.00 C477.00,109.63 483.67,110.00 495.00,110.00 C506.33,110.00 513.00,109.63 513.00,109.00 C513.00,108.37 506.33,108.00 495.00,108.00 C483.67,108.00 477.00,108.37 477.00,109.00 ZM 372.25 147.75 C372.54,146.88 375.90,146.41 383.33,146.22 C392.38,145.98 394.00,146.17 394.00,147.47 C394.00,148.75 392.21,149.00 382.92,149.00 C374.50,149.00 371.93,148.70 372.25,147.75 ZM 383.89 68.12 C385.31,68.05 386.87,67.99 388.58,67.93 C405.18,67.33 407.33,67.51 406.71,69.37 C406.46,70.14 400.77,70.59 389.08,70.77 C387.84,70.79 386.68,70.81 385.61,70.82 C387.47,70.62 388.00,70.22 388.00,69.46 C388.00,68.46 387.22,68.11 383.89,68.12 ZM 713.89 188.66 C715.23,185.54 715.98,182.65 715.58,182.24 C714.40,181.07 708.00,188.73 708.00,191.32 C708.00,192.61 708.31,193.98 708.69,194.35 C710.10,195.76 711.53,194.19 713.89,188.66 ZM 37.42 225.62 C37.48,225.28 37.59,225.01 37.74,224.86 C38.21,224.39 83.03,223.90 137.35,223.75 L 236.11 223.50 L 136.89 224.00 C62.18,224.38 39.54,224.73 37.42,225.62 ZM 413.77 68.88 C413.87,68.70 413.99,68.51 414.13,68.34 C414.92,67.39 418.05,67.00 424.96,67.00 C435.11,67.00 436.72,67.43 434.87,69.66 C434.08,70.61 430.95,71.00 424.04,71.00 C421.12,71.00 418.41,70.91 416.48,70.77 C416.97,70.74 417.48,70.68 418.00,70.60 C419.92,70.28 423.41,70.02 425.75,70.01 C428.09,70.00 430.00,69.55 430.00,69.00 C430.00,68.42 426.69,68.00 422.06,68.00 C417.52,68.00 414.82,68.28 413.77,68.88 ZM 457.24 163.75 C457.73,162.28 464.00,161.43 464.00,162.83 C464.00,163.98 461.58,165.00 458.83,165.00 C457.68,165.00 457.01,164.47 457.24,163.75 ZM 361.00 164.11 C361.00,163.62 361.71,162.94 362.58,162.61 C362.90,162.48 365.89,162.37 370.73,162.27 C367.78,162.49 366.88,162.87 366.63,163.52 C366.42,164.06 366.68,164.40 368.17,164.61 C363.60,164.47 361.00,164.30 361.00,164.11 ZM 356.92 98.60 C358.49,96.71 361.35,96.45 360.76,98.25 C360.53,98.94 359.28,99.66 357.97,99.85 C355.90,100.15 355.76,99.99 356.92,98.60 ZM 304.22 194.85 C304.46,194.11 305.47,193.34 306.45,193.15 C307.59,192.93 308.07,193.29 307.78,194.15 C307.54,194.89 306.53,195.66 305.55,195.85 C304.41,196.07 303.93,195.71 304.22,194.85 ZM 351.00 110.11 C351.00,109.00 353.59,107.93 354.38,108.71 C354.69,109.02 354.71,109.67 354.41,110.14 C353.71,111.28 351.00,111.25 351.00,110.11 ZM 340.48 24.78 C346.07,24.06 372.90,23.52 429.50,22.97 C471.28,22.57 544.15,21.63 602.24,20.76 C553.47,21.55 482.91,22.47 436.50,22.91 C374.88,23.50 346.25,24.05 340.48,24.78 ZM 359.00 70.00 C359.00,69.45 359.93,69.00 361.06,69.00 C362.19,69.00 362.84,69.45 362.50,70.00 C362.16,70.55 361.23,71.00 360.44,71.00 C359.65,71.00 359.00,70.55 359.00,70.00 ZM 361.50 88.00 C361.84,87.45 362.77,87.00 363.56,87.00 C364.35,87.00 365.00,87.45 365.00,88.00 C365.00,88.55 364.07,89.00 362.94,89.00 C361.81,89.00 361.16,88.55 361.50,88.00 ZM 629.00 86.00 C629.00,85.45 629.70,85.00 630.56,85.00 C631.42,85.00 631.84,85.45 631.50,86.00 C631.16,86.55 630.46,87.00 629.94,87.00 C629.42,87.00 629.00,86.55 629.00,86.00 ZM 337.00 180.00 C337.00,179.45 337.70,179.00 338.56,179.00 C339.42,179.00 339.84,179.45 339.50,180.00 C339.16,180.55 338.46,181.00 337.94,181.00 C337.42,181.00 337.00,180.55 337.00,180.00 ZM 793.67 139.46 C789.77,137.26 781.27,137.04 749.22,137.00 C749.32,137.00 749.43,137.00 749.53,137.00 C781.23,137.00 789.62,137.08 793.67,139.46 ZM 370.94 110.82 C370.60,110.78 370.41,110.74 370.37,110.70 C369.93,110.27 369.86,109.90 370.31,109.59 C370.29,109.62 370.28,109.65 370.27,109.67 C370.14,110.07 370.42,110.49 370.94,110.82 ZM 767.19 238.99 C768.90,238.49 771.27,236.99 773.13,235.28 C771.35,236.94 769.12,238.44 767.68,238.89 C767.58,238.92 767.42,238.95 767.19,238.99 ZM 372.24 69.77 C372.24,69.77 372.24,69.77 372.24,69.77 C372.23,69.81 372.22,69.84 372.22,69.88 C372.22,69.84 372.23,69.81 372.24,69.77 ZM 413.68 70.34 C413.66,70.33 413.65,70.31 413.63,70.29 C413.65,70.31 413.66,70.33 413.68,70.35 C413.68,70.34 413.68,70.34 413.68,70.34 Z" fill="rgba(14,72,124,1)"/>
<path d="M 663.06 239.88 C658.83,239.01 655.08,236.33 653.96,233.38 C652.46,229.45 652.81,225.22 655.43,215.50 C656.76,210.55 660.17,197.95 662.99,187.50 C665.82,177.05 669.21,164.31 670.52,159.18 C671.84,154.06 673.86,148.35 675.01,146.48 C677.30,142.78 682.09,139.42 687.21,137.92 C689.13,137.36 710.84,136.97 739.31,136.99 C792.22,137.03 792.54,137.06 796.83,142.51 C799.73,146.19 799.66,152.27 796.60,163.04 C795.27,167.69 790.46,184.76 785.89,200.97 C778.43,227.49 777.26,230.82 774.19,234.21 C772.26,236.35 769.20,238.43 767.14,239.00 C763.15,240.11 668.12,240.92 663.06,239.88 ZM 765.04 236.89 C769.29,235.87 774.35,230.80 775.91,226.00 C776.53,224.07 780.37,210.57 784.42,196.00 C798.45,145.63 798.16,147.37 793.31,142.83 L 790.82 140.50 L 738.81 140.78 C695.92,141.00 686.32,141.30 684.02,142.49 C678.83,145.17 676.44,149.31 673.23,161.14 C658.73,214.74 656.00,225.37 656.00,228.30 C656.00,230.61 656.80,232.41 658.58,234.08 L 661.16 236.50 L 703.33 237.02 C726.52,237.30 749.10,237.58 753.50,237.64 C757.90,237.69 763.09,237.36 765.04,236.89 ZM 173.18 229.50 L 171.21 227.00 L 104.02 227.00 C50.72,227.00 36.92,226.74 37.25,225.75 C37.58,224.77 58.76,224.39 136.89,224.00 L 236.11 223.50 L 238.54 219.00 C241.18,214.10 293.00,109.00 293.00,108.53 C293.00,108.38 301.49,90.98 311.87,69.87 C330.91,31.14 333.22,27.39 339.50,24.97 C341.63,24.15 369.65,23.55 436.50,22.91 C488.20,22.42 569.88,21.33 618.00,20.50 C721.13,18.71 741.65,18.63 742.50,20.00 C742.90,20.64 738.90,21.04 731.31,21.11 C724.81,21.17 695.88,21.63 667.00,22.14 C638.12,22.64 592.67,23.26 566.00,23.51 C420.03,24.89 342.84,26.11 340.27,27.09 C335.05,29.06 332.69,32.53 322.97,52.50 C317.62,63.50 307.73,83.75 301.00,97.50 C294.26,111.25 284.36,131.50 279.00,142.50 C273.63,153.50 262.65,175.97 254.58,192.43 C246.52,208.89 240.16,222.97 240.45,223.72 C240.88,224.85 249.84,225.07 292.23,225.00 C418.33,224.79 486.28,225.06 485.58,225.75 C485.17,226.16 432.11,226.83 367.67,227.24 C233.42,228.09 193.71,228.88 191.85,230.75 C191.06,231.53 187.72,232.00 182.87,232.00 C175.82,232.00 174.97,231.78 173.18,229.50 ZM 360.44 179.47 C363.08,177.47 370.00,177.49 370.00,179.50 C370.00,180.66 368.71,180.99 364.25,180.97 C358.98,180.94 358.66,180.81 360.44,179.47 ZM 382.67 180.34 C382.30,179.97 382.00,179.29 382.00,178.83 C382.00,178.38 410.39,178.00 445.08,178.00 C495.11,178.00 508.08,178.26 507.75,179.25 C507.42,180.23 493.86,180.56 445.34,180.76 C411.25,180.90 383.04,180.71 382.67,180.34 ZM 318.00 179.00 C318.00,178.45 318.90,178.00 320.00,178.00 C321.10,178.00 322.00,178.45 322.00,179.00 C322.00,179.55 321.10,180.00 320.00,180.00 C318.90,180.00 318.00,179.55 318.00,179.00 ZM 326.00 164.11 C326.00,163.09 329.05,161.71 329.74,162.41 C329.99,162.66 329.90,163.35 329.54,163.93 C328.74,165.22 326.00,165.36 326.00,164.11 ZM 366.63 163.52 C367.13,162.23 370.18,162.00 386.69,162.00 C401.83,162.00 406.07,162.28 405.75,163.25 C405.44,164.18 400.32,164.57 385.69,164.77 C368.45,165.01 366.12,164.86 366.63,163.52 ZM 401.50 149.00 C401.16,148.45 401.16,147.55 401.50,147.00 C402.49,145.40 496.28,145.65 495.75,147.25 C495.52,147.96 492.77,148.78 489.42,149.14 C479.33,150.23 402.19,150.11 401.50,149.00 ZM 504.12 149.10 C503.36,148.62 503.05,147.72 503.43,147.11 C504.48,145.42 547.31,145.56 546.75,147.25 C546.09,149.25 507.04,150.95 504.12,149.10 ZM 334.00 148.00 C334.00,147.45 334.93,147.00 336.06,147.00 C337.19,147.00 337.84,147.45 337.50,148.00 C337.16,148.55 336.23,149.00 335.44,149.00 C334.65,149.00 334.00,148.55 334.00,148.00 ZM 557.00 147.61 C557.00,146.84 557.56,146.00 558.25,145.75 C559.96,145.11 593.99,145.65 594.66,146.33 C596.74,148.40 592.44,149.00 575.44,149.00 C560.35,149.00 557.00,148.75 557.00,147.61 ZM 340.50 133.00 C340.84,132.45 342.02,132.00 343.12,132.00 C344.22,132.00 344.84,132.45 344.50,133.00 C344.16,133.55 342.98,134.00 341.88,134.00 C340.78,134.00 340.16,133.55 340.50,133.00 ZM 410.85 130.75 C411.73,129.86 416.35,129.50 426.71,129.50 C437.51,129.50 441.43,129.83 441.74,130.75 C442.07,131.72 438.47,132.00 425.88,132.00 C412.86,132.00 409.85,131.75 410.85,130.75 ZM 346.00 122.00 C346.00,121.45 346.93,121.00 348.06,121.00 C349.19,121.00 349.84,121.45 349.50,122.00 C349.16,122.55 348.23,123.00 347.44,123.00 C346.65,123.00 346.00,122.55 346.00,122.00 ZM 372.19 111.29 C370.92,111.04 370.06,110.32 370.27,109.67 C370.52,108.93 373.81,108.39 379.31,108.21 C386.45,107.97 387.87,108.17 387.42,109.34 C386.60,111.49 378.59,112.51 372.19,111.29 ZM 410.25 109.75 C410.53,108.89 414.39,108.31 422.58,107.89 C439.45,107.02 467.54,106.88 468.32,107.66 C468.69,108.02 468.48,108.92 467.87,109.66 C466.29,111.56 409.62,111.65 410.25,109.75 ZM 477.00 109.00 C477.00,108.37 483.67,108.00 495.00,108.00 C506.33,108.00 513.00,108.37 513.00,109.00 C513.00,109.63 506.33,110.00 495.00,110.00 C483.67,110.00 477.00,109.63 477.00,109.00 ZM 383.48 88.97 C383.11,88.36 383.11,87.56 383.48,87.18 C383.86,86.81 413.04,86.35 448.33,86.17 C504.66,85.87 512.32,86.01 511.00,87.29 C509.73,88.53 499.86,88.86 446.83,89.42 C401.57,89.89 383.97,89.77 383.48,88.97 ZM 372.25 69.75 C372.52,68.93 375.30,68.40 380.33,68.21 C386.70,67.97 388.00,68.18 388.00,69.46 C388.00,70.72 386.53,71.00 379.92,71.00 C373.90,71.00 371.94,70.68 372.25,69.75 ZM 413.78 70.45 C412.09,68.75 414.61,68.00 422.06,68.00 C426.69,68.00 430.00,68.42 430.00,69.00 C430.00,69.55 428.09,70.00 425.75,70.01 C423.41,70.02 419.92,70.28 418.00,70.60 C416.08,70.92 414.17,70.85 413.78,70.45 ZM 711.74 210.41 C711.06,209.72 713.69,204.05 717.50,198.02 C718.72,196.09 723.43,188.09 727.95,180.25 C735.57,167.06 737.89,164.40 739.50,167.00 C740.32,168.32 715.61,210.42 713.80,210.78 C713.03,210.94 712.11,210.77 711.74,210.41 ZM 693.67 198.46 C689.47,193.94 686.97,190.42 687.17,189.34 C687.57,187.27 708.77,171.74 710.09,172.56 C712.30,173.92 710.41,176.24 701.96,182.53 C691.70,190.17 691.84,188.37 700.73,198.20 C703.41,201.16 704.76,203.46 704.38,204.45 C703.26,207.37 700.50,205.83 693.67,198.46 ZM 739.74 205.40 C738.42,204.09 740.54,201.84 748.59,195.99 C753.21,192.63 757.00,189.64 757.00,189.35 C757.00,189.06 754.53,186.05 751.50,182.66 C745.70,176.15 744.96,174.34 747.67,173.30 C748.88,172.83 751.20,174.69 756.13,180.08 C759.87,184.16 762.95,188.29 762.97,189.25 C762.99,190.34 759.12,193.86 752.80,198.50 C743.02,205.69 741.06,206.73 739.74,205.40 Z" fill="rgba(69,176,216,1)"/>
</g>
</svg>